<?xml version="1.0" encoding="utf-8"?>
<!-- Generator: Adobe Illustrator 27.5.0, SVG Export Plug-In . SVG Version: 6.00 Build 0)  -->
<svg version="1.1" xmlns="http://www.w3.org/2000/svg" xmlns:xlink="http://www.w3.org/1999/xlink" x="0px" y="0px"
	 viewBox="0 0 500 500" style="enable-background:new 0 0 500 500;" xml:space="preserve">
<g id="BACKGROUND">
	<rect style="fill:#FFFFFF;" width="500" height="500"/>
</g>
<g id="OBJECTS">
	<g>
		<g>
			<g>
				<g>
					<g>
						<path style="fill:#9D99AD;" d="M266.795,252.489c4.141-9.035,8.659-53.459,4.141-60.612
							c-4.518-7.153-12.8-10.541-10.918,12.047c1.882,22.588,1.882,46.075,1.882,46.075L266.795,252.489z"/>
						<path style="opacity:0.52;fill:#9D99AD;" d="M266.795,252.489c4.141-9.035,8.659-53.459,4.141-60.612
							c-4.518-7.153-12.8-10.541-10.918,12.047c1.882,22.588,1.882,46.075,1.882,46.075L266.795,252.489z"/>
					</g>
					<g>
						<path style="fill:#9D99AD;" d="M262.046,187.51c2.867,15.286,25.078,18.297,37.125,18.297c12.047,0,15.812-1.356,7.529-9.149
							c-8.282-7.792-33.781-14.569-40.42-14.192C259.642,182.842,262.046,187.51,262.046,187.51z"/>
						<path style="opacity:0.58;fill:#9D99AD;" d="M266.076,195.516c1.432,0.807,2.884,1.568,4.366,2.271
							c1.154,0.277,2.316,0.514,3.485,0.715c5.52-0.036,11.05-0.602,16.51-1.458c4.08-0.943,8.101-2.093,12.045-3.471
							c-10.617-6.405-30.459-11.431-36.201-11.106c-6.639,0.376-4.235,5.044-4.235,5.044
							C262.641,190.682,264.078,193.319,266.076,195.516z"/>
					</g>
				</g>
				<g>
					<g>
						<path style="fill:#9D99AD;" d="M247.635,273.195c4.141-9.035,8.659-53.459,4.141-60.612
							c-4.518-7.153-12.8-10.541-10.918,12.047c1.882,22.588,1.882,46.075,1.882,46.075L247.635,273.195z"/>
						<path style="opacity:0.52;fill:#9D99AD;" d="M247.635,273.195c4.141-9.035,8.659-53.459,4.141-60.612
							c-4.518-7.153-12.8-10.541-10.918,12.047c1.882,22.588,1.882,46.075,1.882,46.075L247.635,273.195z"/>
					</g>
					<g>
						<path style="fill:#9D99AD;" d="M242.886,208.215c2.867,15.286,25.078,18.298,37.125,18.298c12.047,0,15.812-1.356,7.529-9.149
							c-8.282-7.792-33.781-14.569-40.42-14.192C240.482,203.548,242.886,208.215,242.886,208.215z"/>
						<path style="opacity:0.58;fill:#9D99AD;" d="M245.552,214.541c1.736,0.308,3.473,0.606,5.217,0.863
							c4.99-0.038,9.968-0.562,14.903-1.335c3.807-0.877,7.571-1.898,11.299-3.032c-10.829-4.772-25.122-8.134-29.851-7.866
							c-6.639,0.376-4.235,5.044-4.235,5.044C243.335,210.615,244.263,212.711,245.552,214.541z"/>
					</g>
				</g>
				<g>
					<g>
						<path style="fill:#9D99AD;" d="M221.938,289.534c4.141-9.035,8.659-53.459,4.141-60.612
							c-4.518-7.153-12.8-10.541-10.918,12.047c1.882,22.588,1.882,46.075,1.882,46.075L221.938,289.534z"/>
						<path style="opacity:0.52;fill:#9D99AD;" d="M221.938,289.534c4.141-9.035,8.659-53.459,4.141-60.612
							c-4.518-7.153-12.8-10.541-10.918,12.047c1.882,22.588,1.882,46.075,1.882,46.075L221.938,289.534z"/>
					</g>
					<g>
						<path style="fill:#9D99AD;" d="M217.189,224.555c2.867,15.286,26.403,24.796,38.45,24.796c12.047,0,15.812-1.356,7.529-9.149
							c-8.282-7.792-35.105-21.067-41.744-20.691C214.785,219.887,217.189,224.555,217.189,224.555z"/>
						<path style="opacity:0.58;fill:#9D99AD;" d="M218.31,228.202c1.192,0.613,2.397,1.198,3.622,1.745
							c4.05,1.116,8.163,1.904,12.337,2.445c5.611,0.149,11.211-0.073,16.792-0.572c-11.047-6.409-25.085-12.568-29.637-12.31
							c-6.639,0.376-4.235,5.044-4.235,5.044C217.425,225.812,217.813,227.026,218.31,228.202z"/>
					</g>
				</g>
			</g>
			<g>
				<g>
					<g>
						<path style="fill:#9D99AD;" d="M343.783,128.631c-7.624,12.141,7.584,33.747,34.851,27.462c0,0,7.502-30.003-8.027-38.191
							S343.783,128.631,343.783,128.631z"/>
						<path style="opacity:0.52;fill:#9D99AD;" d="M371.846,129.734c-0.366-3.524-0.074-7.082,0.757-10.546
							c-0.623-0.468-1.277-0.908-1.996-1.287c-15.529-8.188-26.823,10.729-26.823,10.729c-7.623,12.141,7.584,33.747,34.851,27.462
							c0,0,0.598-2.392,1.106-6.008C375.466,144.534,372.667,137.634,371.846,129.734z"/>
					</g>
					<g>
						<path style="fill:#9D99AD;" d="M332.489,106.607c-0.847,11.012,2.541,18.353,11.294,22.023
							c8.753,3.671,22.306-0.847,24.565-3.953c2.259-3.106,2.259-6.777,2.259-6.777s3.671-5.082-5.082-14.4
							c-8.753-9.318-14.118-13.271-21.176-9.882C337.289,97.007,332.489,106.607,332.489,106.607z"/>
						<path style="opacity:0.52;fill:#9D99AD;" d="M347.687,112.232c1.227-6.424,5.622-12.348,11.595-14.88
							c-5.42-4.721-9.716-6.238-14.934-3.733c-7.059,3.388-11.859,12.988-11.859,12.988c-0.847,11.012,2.541,18.353,11.294,22.023
							c3.717,1.559,8.298,1.638,12.513,0.979C349.852,126.591,346.322,119.38,347.687,112.232z"/>
					</g>
					<g>
						<path style="fill:#9D99AD;" d="M313.289,87.125c-1.412,12.424,10.195,20.612,19.074,22.023
							c8.879,1.412,20.528-8.891,19.504-16.728c-1.025-7.837-13.166-24.496-26.154-19.696
							C312.724,77.525,313.289,87.125,313.289,87.125z"/>
						<path style="opacity:0.52;fill:#9D99AD;" d="M332.157,97.428c-2.131-7.829-1.163-16.234,1.053-23.929
							c0.126-0.439,0.285-0.844,0.456-1.235c-2.552-0.599-5.233-0.545-7.954,0.461c-12.988,4.8-12.423,14.4-12.423,14.4
							c-1.412,12.424,10.195,20.612,19.074,22.023c2.012,0.32,4.166,0.034,6.283-0.685
							C335.525,105.415,333.224,101.346,332.157,97.428z"/>
					</g>
					<g>
						<path style="fill:#9D99AD;" d="M296.066,79.219c2.823,10.447,12.304,11.701,17.164,11.356s13.33-4.015,12.483-17.85
							c-0.847-13.835-8.753-19.482-26.541-15.529C281.383,61.149,296.066,79.219,296.066,79.219z"/>
						<path style="opacity:0.52;fill:#9D99AD;" d="M309.074,79.079c-3.711-5.444-4.742-14.011-2.688-20.262
							c0.335-1.019,0.799-1.969,1.368-2.822c-2.56,0.103-5.411,0.496-8.583,1.201c-17.788,3.953-3.106,22.024-3.106,22.024
							c2.824,10.447,12.304,11.701,17.164,11.356c3.135-0.222,7.77-1.834,10.44-6.661C318.541,85.924,312.4,83.957,309.074,79.079z"
							/>
					</g>
				</g>
				<g>
					<path style="fill:#FFDF63;" d="M242.461,153.76c-0.457-24.067,41.181-43.2,63.487-35.294c22.306,7.906,11.576,33.451,0,38.749
						c0,0,8.188-16.161-2.541-16.161s-7.341,21.741-32.471,27.388C245.807,174.089,242.461,153.76,242.461,153.76z"/>
					<path style="opacity:0.52;fill:#FFDF63;" d="M270.936,168.442c25.129-5.647,21.741-27.388,32.471-27.388
						c10.729,0,2.541,16.161,2.541,16.161c2.897-1.326,5.74-3.919,8.026-7.187c8.632-20.026-8.026-31.563-26.097-10.386
						c-11.895,13.939-28.545,29.585-45.416,14.118C242.461,153.76,245.807,174.089,270.936,168.442z"/>
					<path style="opacity:0.75;fill:#FFDF63;" d="M292.751,116.686c-22.426,0.744-50.666,17.231-50.29,37.075
						c0,0,0.419,2.517,2.049,5.532C269.224,161.985,290.235,130.223,292.751,116.686z"/>
				</g>
				<g>
					<path style="fill:#FFDF63;" d="M232.819,154.325c5.455,7.274,17.506,3.318,19.482-5.823
						c1.977-9.141,8.531-23.844,28.407-39.222c19.875-15.378,25.522-24.413,24.676-33.731c-0.847-9.318-1.448-19.215-1.448-19.215
						l4.137-0.371c0,0-2.406-8.367-23.865-1.308c-21.459,7.059-46.588,30.667-52.8,56.557
						C225.195,137.101,229.431,149.807,232.819,154.325z"/>
					<path style="opacity:0.47;fill:#FFDF63;" d="M231.402,126.372c-1.848,20.463,3.551-0.377,25.307-26.353
						s43.039-32.561,35.268-38.963c-7.771-6.402-33.485,9.723-47.582,29.568C232.471,107.412,231.402,126.372,231.402,126.372z"/>
					<path style="opacity:0.25;fill:#FFDF63;" d="M252.301,148.502c1.977-9.141,8.531-23.844,28.407-39.222
						c18.988-14.691,24.985-23.593,24.744-32.483c-2.504,0.153-5.591,0.903-9.387,2.423c-28.706,11.499-48.855,74.417-65.435,71.01
						c0.694,1.775,1.46,3.126,2.188,4.096C238.274,161.599,250.325,157.643,252.301,148.502z"/>
					
						<path style="fill:none;stroke:#E59041;stroke-width:0.75;stroke-linecap:round;stroke-linejoin:round;stroke-miterlimit:10;" d="
						M235.135,148.502c7.327,5.259,18.522-4.85,18.522-4.85"/>
				</g>
			</g>
			<g>
				<path style="fill:#9D99AD;" d="M272.817,333.054c39.907,10.165,81.677-48.188,95.248-80.564
					c13.572-32.376,23.718-68.518,13.553-94.494c0,0-19.953-14.682-42.165-7.529c-22.212,7.153-66.475,85.656-92.343,106.075
					c-25.868,20.419-1.774,49.407-1.774,49.407L272.817,333.054z"/>
				<path style="fill:#C9C1D0;" d="M371.37,200.536c8.546-3.369,12.122-10.297,6.107-24.094c0,0,8.061-9.477-3.584-22.825
					c-7.822-3.643-20.695-7.577-34.44-3.151c-22.212,7.153-66.475,85.656-92.343,106.075c-11.372,8.976-13.087,19.608-11.44,28.705
					c14.273,10.163,33.854,19.726,56.307,18.82c46.641-1.882,32.041-23.341,32.041-23.341c14.531,1.128,23.181-5.965,22.588-25.976
					c12.224-1.352,19.029-8.313,17.318-24.094C371.563,223.993,377.393,216.146,371.37,200.536z"/>
				<g>
					
						<path style="fill:none;stroke:#9D99AD;stroke-width:0.75;stroke-linecap:round;stroke-linejoin:round;stroke-miterlimit:10;" d="
						M383.684,203.157c-7.336-23.703-31.892-46.927-67.364-32.533"/>
					
						<path style="fill:none;stroke:#9D99AD;stroke-width:0.75;stroke-linecap:round;stroke-linejoin:round;stroke-miterlimit:10;" d="
						M297.921,194.129c27.227-8.275,70.911,3.641,76.363,42.483"/>
					
						<path style="fill:none;stroke:#9D99AD;stroke-width:0.75;stroke-linecap:round;stroke-linejoin:round;stroke-miterlimit:10;" d="
						M283.147,214.126c23.178-6.437,73.313,0.577,77.986,52.6"/>
					
						<path style="fill:none;stroke:#9D99AD;stroke-width:0.75;stroke-linecap:round;stroke-linejoin:round;stroke-miterlimit:10;" d="
						M341.821,295.717c-3.12-38.71-29.572-71.71-75.886-59.105"/>
					
						<path style="fill:none;stroke:#9D99AD;stroke-width:0.75;stroke-linecap:round;stroke-linejoin:round;stroke-miterlimit:10;" d="
						M311.138,324.585c6.857-44.236-12.379-81.13-59.42-72.095"/>
				</g>
				<path style="opacity:0.35;fill:#C9C1D0;" d="M300.234,266.726c16.89,16.404,25.632,13.64,22.365-17.375
					c12.224,5.397,17.224-2.452,12.929-27.342c19.01,7.381,21.234-0.959,6.337-25.331c0,0,14.414-6.2-4.859-12.005
					c-16.221-4.885-12.604,7.517-12.604,7.517c-26.361,7.134-26.082,13.676-13.265,19.94c-18.675,1.706-25.796,8.447-15.78,22.655
					c-19.357,5.531-21.319,12.719-6.498,22.146c0,0-17.442,0.724-5.713,13.441C298.605,287.132,305.853,273.545,300.234,266.726z"/>
				<path style="opacity:0.28;fill:#9D99AD;" d="M368.066,252.489c11.715-27.947,20.865-58.694,16.615-83.292
					c-1.285,9.318-6.166,12.851-11.615,14.325c1.352,16.916-3.726,23.814-11.933,25.837c1.37,10.924-3.15,18.481-14.038,22.397
					c0.872,15.35-5.539,23.834-16.3,28.217c-1.035,16.826-6.751,26.994-21.587,24.186c0,0-1.849,24.048-15.119,12.982
					l-10.946,37.064C319.705,333.356,355.662,282.079,368.066,252.489z"/>
			</g>
			<g>
				<g>
					<g>
						<path style="fill:#38395A;" d="M410.418,314.23c1.694,10.918,3.765,12.8,4.706,12.235c0.941-0.565,1.882-11.106,1.882-11.106
							s4.894,12.235,6.776,12.235c1.882,0,0-11.859,0-11.859l-9.976-3.577L410.418,314.23z"/>
						<path style="fill:#9D99AD;" d="M402.324,312.16c5.082,5.082,22.776,8.094,23.529,5.459c0.753-2.635,5.271-4.894-4.141-7.341
							c-9.412-2.447-17.129-0.753-17.129-0.753L402.324,312.16z"/>
					</g>
					<g>
						<path style="fill:#9D99AD;" d="M402.324,312.16c2.747,1.977,7.906-0.753,8.094-6.212c0.188-5.459,14.494-39.153,15.624-50.447
							c1.129-11.294-0.941-16.415-11.859-14.137C403.265,243.642,402.324,312.16,402.324,312.16z"/>
						<path style="opacity:0.52;fill:#9D99AD;" d="M415.526,267.657c1.079-7.398,5.33-13.919,10.699-19.063
							c-0.524-6.371-3.689-8.973-12.042-7.23c-10.918,2.278-11.859,70.796-11.859,70.796c2.747,1.977,7.906-0.753,8.094-6.212
							c0.061-1.762,1.597-6.475,3.682-12.419C413.486,284.897,414.294,276.103,415.526,267.657z"/>
					</g>
					<g>
						<path style="fill:#9D99AD;" d="M358.264,226.314c2.7,5.146,22.037,9.949,35.966,15.051
							c13.929,5.102,23.691,11.926,27.72,8.636c4.029-3.29,6.915-8.993-3.25-18.781c-10.165-9.788-41.278-14.1-50.098-11.85
							C359.783,221.619,356.719,223.367,358.264,226.314z"/>
						<path style="opacity:0.58;fill:#9D99AD;" d="M383.653,226.581c5.723,1.741,12.119,3.772,17.354,6.993
							c8.67,5.334,12.719,9.511,19.157,17.21c0.684-0.118,1.281-0.371,1.787-0.784c4.029-3.29,6.915-8.993-3.25-18.781
							c-10.165-9.788-41.278-14.1-50.098-11.85c-5.404,1.378-8.637,2.57-9.984,3.962
							C367.039,223.323,375.687,224.158,383.653,226.581z"/>
					</g>
				</g>
				<g>
					<g>
						<path style="fill:#38395A;" d="M388.583,364.866c0.753,7.153,2.259,15.059,4.141,14.494c1.882-0.565,3.576-9.412,3.576-9.412
							h2.071c0,0,0.753,9.281,3.2,9.44c2.447,0.16,2.823-12.264,2.823-12.264L388.583,364.866z"/>
						<path style="fill:#9D99AD;" d="M378.042,355.83c-3.388,3.2,0.736,2.824,7.709,9.977s12.62,8.312,16.573,6.321
							c3.953-1.991,7.341-5.191,0-9.897c-7.341-4.706-20.183-9.788-21.856-9.035C378.795,353.948,378.042,355.83,378.042,355.83z"/>
					</g>
					<g>
						<path style="fill:#9D99AD;" d="M388.583,289.534c-1.6,10.767-13.445,30.249-14.299,48.037
							c-0.854,17.788,5.116,26.301,9.472,16.115c4.356-10.186,17.998-40.68,22.895-52.821c4.897-12.141,4.144-24.943-10.162-24.048
							C382.183,277.713,388.583,289.534,388.583,289.534z"/>
						<path style="opacity:0.52;fill:#9D99AD;" d="M385.696,331.054c1.483-13.689,7.626-29.506,17.879-39.057
							c1.885-1.756,3.793-3.333,5.756-4.728c-0.417-6.417-4.09-10.998-12.842-10.451c-14.306,0.895-7.906,12.717-7.906,12.717
							c-1.6,10.767-13.445,30.249-14.299,48.037c-0.854,17.788,5.116,26.301,9.472,16.115c0.478-1.118,1.074-2.493,1.752-4.05
							C384.899,343.497,385.028,337.22,385.696,331.054z"/>
					</g>
					<g>
						<path style="fill:#9D99AD;" d="M336.819,251.117c6.717-5.612,20.155-0.51,37.466,9.278
							c17.311,9.788,32.37,13.176,34.252,19.012c1.882,5.835-7.341,14.118-18.823,15.059c-11.482,0.941-35.576-16.941-43.671-24.282
							C337.948,262.842,333.054,254.262,336.819,251.117z"/>
						<path style="opacity:0.58;fill:#9D99AD;" d="M374.284,260.395c-12.457-7.044-22.908-11.66-30.292-11.604
							c0.801,4.044,4.832,9.637,10.364,14.654c8.094,7.341,32.188,25.223,43.67,24.282c3.383-0.277,6.566-1.195,9.33-2.496
							c1.279-1.982,1.761-4.02,1.179-5.824C406.654,273.572,391.595,270.184,374.284,260.395z"/>
					</g>
				</g>
				<g>
					<g>
						<path style="fill:#38395A;" d="M367.301,391.714c-0.177,7.975-2.435,11.74-0.93,12.116c1.506,0.376,7.19-6.023,7.83-9.412
							l1.581-0.188c0,0-0.906,11.106,1.053,10.918c1.959-0.188,5.724-13.434,5.724-13.434H367.301z"/>
						<path style="fill:#9D99AD;" d="M349.054,378.418c0.376,3.953,9.519,12.829,20.518,16.188
							c10.998,3.359,14.306-0.891,15.059-2.893c0.753-2.002,6.634-5.04-4.871-8.321c-11.505-3.281-23.552-4.787-26.376-7.61
							C350.56,372.96,349.054,378.418,349.054,378.418z"/>
					</g>
					<g>
						<path style="fill:#9D99AD;" d="M361.854,320.819c-9.035,20.329-18.957,48.377-15.435,54.154c0,0,0.188,6.081,4.894,5.705
							c4.706-0.376,6.965-2.635,6.4-4.894c-0.565-2.259,7.718-19.388,17.882-35.576c10.165-16.188,15.635-29.014,5.559-29.283
							C371.077,310.654,361.854,320.819,361.854,320.819z"/>
						<path style="opacity:0.52;fill:#9D99AD;" d="M378.136,324.192c2.45-1.526,4.983-2.731,7.559-3.649
							c1.768-5.815,0.793-9.477-4.541-9.62c-10.076-0.269-19.299,9.895-19.299,9.895c-9.035,20.329-18.957,48.377-15.435,54.154
							c0,0,0.164,4.923,3.638,5.624C348.175,358.515,358.37,336.505,378.136,324.192z"/>
					</g>
					<g>
						<path style="fill:#9D99AD;" d="M319.689,275.266c-4.288,6.896-1.882,16.182,13.553,31.247
							c15.435,15.065,27.106,18.077,31.623,17.136c4.518-0.941,20.215-5.089,20.178-11.489c-0.037-6.4-14.155-16.941-25.072-22.776
							C349.054,283.548,321.819,271.841,319.689,275.266z"/>
						<path style="opacity:0.58;fill:#9D99AD;" d="M385.044,312.16c-0.037-6.4-14.155-16.941-25.072-22.776
							c-7.572-4.047-22.987-10.914-32.438-13.603c-0.335,6.207,3.932,14.217,15.42,25.43c15.435,15.065,27.106,18.077,31.623,17.136
							c1.738-0.362,5.133-1.201,8.648-2.458C384.358,314.75,385.051,313.505,385.044,312.16z"/>
					</g>
				</g>
			</g>
			<g>
				<g>
					<path style="fill:#9D99AD;" d="M220.113,260.207c3.106-10.165-9.6-38.307-17.788-36.659c0,0,0-7.952-13.271-14.164
						c-13.271-6.212-25.129-15.247-40.659-9.6c-15.529,5.647-13.271,22.87-5.365,33.318c7.906,10.447,36.141,14.4,40.659,11.576
						c0,0,1.977,7.906,9.035,14.118c7.059,6.212,16.376,11.577,16.376,11.577L220.113,260.207z"/>
					<path style="opacity:0.52;fill:#9D99AD;" d="M183.689,244.678c0,0,1.977,7.906,9.035,14.118
						c7.059,6.212,16.376,11.577,16.376,11.577l11.012-10.165c0.587-1.921,0.608-4.485,0.202-7.368
						c-13.574,1.715-23.92-18.412-23.92-18.412s-19.473,3.702-24.53-33.414c-7.269-2.956-14.797-4.384-23.47-1.23
						c-15.529,5.647-13.27,22.87-5.365,33.318C150.937,243.548,179.172,247.501,183.689,244.678z"/>
				</g>
				<g>
					<g>
						<path style="fill:#9D99AD;" d="M64.631,303.689c3.865-4.237,13.929-29.92,31.247-47.148
							c17.318-17.228-33.129-16.339-33.129-16.339S61.356,307.279,64.631,303.689z"/>
						<path style="opacity:0.52;fill:#9D99AD;" d="M74.352,281.832c1.739-1.724,3.576-3.257,5.484-4.612
							c4.426-7.054,9.753-14.423,16.042-20.679c17.318-17.228-33.129-16.339-33.129-16.339s-0.873,42.075,0.391,57.792
							C65.886,292.086,69.538,286.604,74.352,281.832z"/>
					</g>
					<g>
						<path style="fill:#9D99AD;" d="M51.078,301.054c5.902-5.04,21.835-31.247,28.235-36.141c0,0,28.855-2.259,54.212-12.424
							c25.357-10.165,36.639-44.487,32.753-49.332c-3.886-4.845-26.353-25.209-63.623-12.409
							c-37.271,12.8-51.576,52.706-55.341,74.165C43.549,286.372,46.4,305.05,51.078,301.054z"/>
						<path style="fill:#FFDF63;" d="M165.639,214.246c-5.459-8.167-23.173,0.589-23.173,0.589s-0.779-10.993-11.294-11.678
							c-10.515-0.685-19.765,14.98-19.765,14.98s-6.722-5.921-13.553-4.8c-9.129,1.498-10.729,20.85-10.729,20.85
							s-5.082-1.086-10.165,1.456s-1.694,20.899-1.694,20.899s-4.424-0.981-8.584,2.348c-6.945,5.56-4.19,19.109-4.19,19.109
							s-6.263,10.793-5.38,15.926c7.269-9.73,17.408-25.346,22.201-29.012c0,0,28.855-2.259,54.212-12.423
							C151.175,245.414,161.997,226.642,165.639,214.246z"/>
						<path style="opacity:0.47;fill:#FFDF63;" d="M83.454,248.53c3.995,11.849,77.176-18.458,72.282-39.249
							S78.184,232.9,83.454,248.53z"/>
					</g>
				</g>
			</g>
			<g>
				<path style="fill:#9D99AD;" d="M289.007,337.289c1.412,18.635-40.094,30.494-72.242,17.223s-46.911-46.306-41.828-55.285
					c5.082-8.98,12.235-3.51,12.235-3.51s4.329-30.616,17.694-36.828c13.365-6.212,19.012,0,19.012,0
					c15.812-7.906,38.023-8.889,55.513,2.635c17.49,11.525,22.04,23.718,24.487,58.032
					C293.438,318.463,289.771,326.023,289.007,337.289z"/>
				<path style="opacity:0.52;fill:#9D99AD;" d="M253.86,350.466c-16.932,0.866-32.707-0.961-47.697-9.459
					c-13.186-7.475-24.979-18.479-31.587-32.23c3.045,13.654,17.471,35.532,42.189,45.735c30.356,12.531,69.048,2.655,72.08-14.174
					C278.92,347.379,265.99,349.846,253.86,350.466z"/>
				<g>
					<path style="fill:#C9C1D0;" d="M187.36,314.56c-3.812,20.753,3.247,29.929,4.941,30.918c1.694,0.988,8.704-16.77,8.704-16.77
						C197.293,325.763,191.18,320.452,187.36,314.56z"/>
					<path style="fill:#C9C1D0;" d="M221.424,342.089c9.418,4.518,19.96,6.4,24.289,6.776c0,0-14.849,12.315-33.129,8.659
						C208.819,356.772,221.424,342.089,221.424,342.089z"/>
				</g>
				<g>
					<g>
						
							<path style="fill:none;stroke:#585296;stroke-width:0.75;stroke-linecap:round;stroke-linejoin:round;stroke-miterlimit:10;" d="
							M223.878,258.889c4.141,3.012,7.671,11.482,7.671,11.482"/>
						
							<path style="fill:none;stroke:#585296;stroke-width:0.75;stroke-linecap:round;stroke-linejoin:round;stroke-miterlimit:10;" d="
							M262.466,290.889c20.681-10.353,37.082,5.647,20.681,42.165"/>
					</g>
					
						<path style="fill:none;stroke:#585296;stroke-width:0.75;stroke-linecap:round;stroke-linejoin:round;stroke-miterlimit:10;" d="
						M180.395,302.936c10.729,24.659,52.988,56.751,90.259,42.87"/>
					<g>
						
							<path style="fill:none;stroke:#585296;stroke-width:0.75;stroke-linecap:round;stroke-linejoin:round;stroke-miterlimit:10;" d="
							M202.745,319.556c-4.279-3.82,1.933-5.891,4.756,1.45"/>
						
							<path style="fill:none;stroke:#585296;stroke-width:0.75;stroke-linecap:round;stroke-linejoin:round;stroke-miterlimit:10;" d="
							M228.06,335.85c5.375,2.004,4.309-4.457-3.501-3.531"/>
					</g>
				</g>
				<g>
					<g>
						<path style="fill:#FFFFFF;" d="M259.722,305.907c-4.43,7.964-3.934,16.693,1.107,19.497
							c5.041,2.804,12.719-1.378,17.149-9.342s3.934-16.693-1.107-19.497C271.83,293.76,264.152,297.943,259.722,305.907z"/>
						<path style="fill:#38395A;" d="M274.741,295.818c3.323,3.693,3.193,11.172-0.65,18.081
							c-3.843,6.909-10.129,10.965-15.019,10.088c-3.324-3.693-3.193-11.172,0.65-18.081
							C263.565,298.997,269.851,294.942,274.741,295.818z"/>
						<path style="fill:#38395A;" d="M276.055,297.863c-0.353-0.763-0.785-1.456-1.314-2.045
							c-4.89-0.876-11.176,3.179-15.019,10.088c-2.33,4.189-3.287,8.583-2.945,12.22
							C260.495,309.416,267.564,301.881,276.055,297.863z"/>
						<path style="fill:#FFFFFF;" d="M277.91,308.434c-0.811,2.482-2.523,4.149-3.824,3.724c-1.301-0.425-1.698-2.782-0.887-5.264
							c0.811-2.482,2.523-4.149,3.824-3.724C278.324,303.595,278.721,305.952,277.91,308.434z"/>
					</g>
					<g>
						<path style="fill:#FFFFFF;" d="M219.377,281.885c-1.824,8.929-7.884,15.231-13.536,14.076
							c-5.652-1.154-8.756-9.328-6.932-18.257s7.884-15.231,13.536-14.077C218.097,264.783,221.201,272.957,219.377,281.885z"/>
						<path style="fill:#38395A;" d="M214.547,264.449c-4.927,0.639-9.698,6.4-11.28,14.146c-1.582,7.746,0.548,14.917,4.83,17.436
							c4.927-0.638,9.698-6.399,11.28-14.146C220.959,274.139,218.829,266.968,214.547,264.449z"/>
						<path style="fill:#38395A;" d="M214.547,264.449c-0.59,0.077-1.178,0.231-1.758,0.449c2.456,4.523,4.082,9.691,4.673,15.382
							c0.27,2.602,0.175,5.221-0.222,7.809c0.933-1.848,1.675-3.937,2.137-6.203C220.959,274.139,218.829,266.968,214.547,264.449z"
							/>
						<path style="fill:#FFFFFF;" d="M208.845,273.102c-1.207,2.315-3.169,3.68-4.382,3.047c-1.214-0.632-1.219-3.022-0.013-5.338
							c1.207-2.315,3.169-3.68,4.383-3.047C210.047,268.396,210.052,270.786,208.845,273.102z"/>
					</g>
				</g>
				<g>
					<path style="fill:#FFDF63;" d="M260.977,264.872c0,0-0.121-7.852-3.735-8.332c-3.613-0.479-3.586,6.49-3.586,6.49
						s-13.497-6.494-15.755-3.671c-2.259,2.824,9.21,9.035,9.21,9.035s-12.739,3.953-11.045,7.2c1.694,3.247,15.106,0,15.106,0
						s-3.847,11.576,0.547,12.847c4.394,1.271,8.771-12.423,8.771-12.423s6.494,9.459,10.306,8.188
						c3.812-1.271-4.861-13.835-4.861-13.835s8.861,1.035,7.355-1.77C271.139,264.596,260.977,264.872,260.977,264.872z"/>
					<path style="fill:#9D99AD;" d="M251.719,265.666c-1.79,1.573,7.265,7.624,8.865,6.023
						C262.183,270.089,254.13,263.547,251.719,265.666z"/>
					<path style="fill:#FFDF63;" d="M243.266,284.772c-11.448-7.755-11.859,6.776-6.635,10.023
						C241.854,298.042,252.019,290.701,243.266,284.772z"/>
					<path style="fill:#FFDF63;" d="M232.637,298.098c-2.844-2.146-7.765,1.921-2.682,5.591
						C235.037,307.36,237.014,301.401,232.637,298.098z"/>
				</g>
				<path style="opacity:0.35;fill:#C9C1D0;" d="M233.913,258.889c-7.923,5.217,47.578,29.866,49.234,23.633
					C287.736,265.248,246.207,250.795,233.913,258.889z"/>
			</g>
			<g>
				<g>
					<path style="fill:#9D99AD;" d="M303.878,319.556c-12.565-4.457-15.718,8.98-14.871,17.733
						c0.847,8.753-0.147,22.878-0.147,22.878l41.935-10.022C330.795,350.146,325.525,327.235,303.878,319.556z"/>
					<path style="opacity:0.52;fill:#9D99AD;" d="M310.416,337.303c-9.033-2.231-13.847-10.292-11.121-18.615
						c-8.756-0.033-11.022,11.031-10.289,18.602c0.847,8.753-0.147,22.878-0.147,22.878l41.935-10.022c0,0-1.46-6.284-5.945-13.371
						C320.19,338.29,314.982,338.43,310.416,337.303z"/>
				</g>
				<g>
					<g>
						<path style="fill:#9D99AD;" d="M243.548,434.136c-23.153,10.729-47.327,14.965-49.922,14.118
							c-2.595-0.847,2.205,11.294,36.369,7.341c34.165-3.953,71.717-28.235,71.717-28.235L243.548,434.136z"/>
						<path style="opacity:0.52;fill:#9D99AD;" d="M224.183,447.702c6.786,2.155,13.673,3.842,20.662,5.043
							c29.352-7.604,56.868-25.385,56.868-25.385l-58.165,6.777c-9.592,4.445-19.354,7.772-27.689,10.088
							C218.611,445.435,221.382,446.604,224.183,447.702z"/>
					</g>
					<g>
						<path style="fill:#9D99AD;" d="M178.325,412.395c-3.995,8.308,37.051,33.318,90.525,27.671
							c53.474-5.647,74.114-39.551,72.971-65.093s-6.238-32.883-24.02-34.013c-17.782-1.129-45.765,7.059-63.114,25.412
							s-24.032,34.729-29.161,36.706C220.395,405.054,180.149,408.602,178.325,412.395z"/>
						<g>
							<path style="fill:#FFDF63;" d="M278.56,398.432c9.882-5.774,10.3-19.042,10.3-19.042s7.77-1.724,12.853-6.393
								c5.082-4.668,3.859-12.829,3.859-12.829c11.662-3.37,12.062-11.258,1.345-18.861c-16.971,1.934-38.118,10.136-52.23,25.064
								c-17.35,18.353-24.032,34.729-29.162,36.706c-2.315,0.892-11.789,2.105-21.653,3.516c8.752,9.454,33.747-1.443,33.747-1.443
								s1.976,5.268,11.012,4.421c9.035-0.847,17.304-11.139,17.304-11.139S268.678,404.207,278.56,398.432z"/>
							<path style="opacity:0.3;fill:#9D99AD;" d="M332.515,345.193c-2.456,9.923-8.418,27.3-22.688,48.096
								c-20.008,29.159-77.58,46.404-124.078,29.629c13.936,9.892,45.434,21.125,83.101,17.147
								c53.474-5.647,74.114-39.551,72.971-65.093C341.091,358.662,338.742,349.781,332.515,345.193z"/>
							<path style="opacity:0.47;fill:#FFDF63;" d="M240.052,395.858c7.167,4.679,26.367-13.957,46.696-27.51
								c20.329-13.553,33.889-18.273,32.47-22.831c-1.418-4.557-37.689,0.856-56.753,17.542
								C243.402,379.744,240.052,395.858,240.052,395.858z"/>
						</g>
					</g>
				</g>
			</g>
		</g>
	</g>
</g>
</svg>
